<svg width="368" height="368" viewBox="0 0 368 368" fill="none" xmlns="http://www.w3.org/2000/svg">
<g opacity="0.1">
<path d="M368 184C368 285.62 285.62 368 184 368C82.3796 368 0 285.62 0 184C0 82.3796 82.3796 0 184 0C285.62 0 368 82.3796 368 184ZM28.4258 184C28.4258 269.921 98.0787 339.574 184 339.574C269.921 339.574 339.574 269.921 339.574 184C339.574 98.0787 269.921 28.4258 184 28.4258C98.0787 28.4258 28.4258 98.0787 28.4258 184Z" fill="#151443"/>
<path d="M292.14 184C292.14 243.724 243.724 292.141 184 292.141C124.276 292.141 75.8596 243.724 75.8596 184C75.8596 124.276 124.276 75.8599 184 75.8599C243.724 75.8599 292.14 124.276 292.14 184ZM101.649 184C101.649 229.482 138.519 266.351 184 266.351C229.481 266.351 266.351 229.482 266.351 184C266.351 138.519 229.481 101.649 184 101.649C138.519 101.649 101.649 138.519 101.649 184Z" fill="#151443"/>
</g>
</svg>
