<svg width="25" height="20" viewBox="0 0 25 20" fill="none" xmlns="http://www.w3.org/2000/svg">
<path d="M21.1774 1.67497C19.5591 0.89249 17.8287 0.323786 16.0197 0C15.7975 0.41511 15.5379 0.973432 15.359 1.4176C13.4359 1.11872 11.5305 1.11872 9.64286 1.4176C9.46395 0.973432 9.19845 0.41511 8.97434 0C7.16333 0.323786 5.43099 0.894565 3.8127 1.67912C0.548587 6.77668 -0.336262 11.7477 0.106163 16.648C2.2711 18.3188 4.36917 19.3337 6.43185 19.9979C6.94113 19.2736 7.39535 18.5036 7.78666 17.692C7.04142 17.3993 6.32764 17.0382 5.65318 16.6189C5.83212 16.482 6.00713 16.3387 6.17623 16.1914C10.2898 18.1797 14.7593 18.1797 18.8237 16.1914C18.9947 16.3387 19.1698 16.482 19.3467 16.6189C18.6703 17.0402 17.9546 17.4014 17.2093 17.6941C17.6006 18.5036 18.0529 19.2757 18.5641 20C20.6287 19.3358 22.7288 18.3209 24.8937 16.648C25.4129 10.9672 24.0069 6.04193 21.1774 1.67497ZM8.34706 13.6343C7.11221 13.6343 6.09954 12.4429 6.09954 10.9922C6.09954 9.54132 7.09057 8.34791 8.34706 8.34791C9.60356 8.34791 10.6162 9.53924 10.5946 10.9922C10.5966 12.4429 9.60356 13.6343 8.34706 13.6343ZM16.6529 13.6343C15.418 13.6343 14.4053 12.4429 14.4053 10.9922C14.4053 9.54132 15.3964 8.34791 16.6529 8.34791C17.9093 8.34791 18.922 9.53924 18.9004 10.9922C18.9004 12.4429 17.9093 13.6343 16.6529 13.6343Z" fill="white"/>
</svg>
