<svg width="21" height="20" viewBox="0 0 21 20" fill="none" xmlns="http://www.w3.org/2000/svg">
<path d="M5.06598 2.41736C5.06598 3.75242 3.93192 4.83471 2.53299 4.83471C1.13406 4.83471 0 3.75242 0 2.41736C0 1.08229 1.13406 0 2.53299 0C3.93192 0 5.06598 1.08229 5.06598 2.41736Z" fill="white"/>
<path d="M0.346392 6.61157H4.67629V20H0.346392V6.61157Z" fill="white"/>
<path d="M11.6474 6.61157H7.31753V20H11.6474C11.6474 20 11.6474 15.7851 11.6474 13.1498C11.6474 11.568 12.1767 9.97934 14.2887 9.97934C16.6754 9.97934 16.6611 12.0493 16.6499 13.653C16.6354 15.7492 16.6701 17.8884 16.6701 20H21V12.9339C20.9633 8.42197 19.8111 6.34298 16.0206 6.34298C13.7696 6.34298 12.3742 7.3858 11.6474 8.32927V6.61157Z" fill="white"/>
</svg>
