<svg width="27" height="19" viewBox="0 0 27 19" fill="none" xmlns="http://www.w3.org/2000/svg">
<path d="M0.699664 3.6957C0.816942 1.89015 2.26858 0.475146 4.07572 0.385615C6.69257 0.25597 10.4328 0.0996094 13.251 0.0996094C16.0691 0.0996094 19.8093 0.25597 22.4262 0.385615C24.2333 0.475146 25.685 1.89015 25.8022 3.6957C25.9146 5.42555 26.0253 7.55407 26.0253 9.22417C26.0253 10.8943 25.9146 13.0228 25.8022 14.7527C25.685 16.5582 24.2333 17.9732 22.4262 18.0627C19.8093 18.1924 16.0691 18.3487 13.251 18.3487C10.4328 18.3487 6.69257 18.1924 4.07572 18.0627C2.26858 17.9732 0.816942 16.5582 0.699664 14.7526C0.587302 13.0228 0.476562 10.8943 0.476562 9.22417C0.476562 7.55407 0.587302 5.42555 0.699664 3.6957Z" fill="white"/>
<path d="M10.5137 5.57422V12.8739L17.8133 9.22404L10.5137 5.57422Z" fill="#151443"/>
</svg>
